<?xml version="1.0" encoding="utf-8"?>
<!-- Generator: Adobe Illustrator 21.0.2, SVG Export Plug-In . SVG Version: 6.00 Build 0)  -->
<svg version="1.1" id="Layer_1" xmlns="http://www.w3.org/2000/svg" xmlns:xlink="http://www.w3.org/1999/xlink" x="0px" y="0px"
	 viewBox="0 0 81 92" style="enable-background:new 0 0 81 92;" xml:space="preserve">
<style type="text/css">
	.st0{fill:#F9D9B9;stroke:#000000;stroke-miterlimit:10;}
	.st1{fill:#E8A154;stroke:#000000;stroke-miterlimit:10;}
	.st2{fill:#FCD051;stroke:#000000;stroke-miterlimit:10;}
	.st3{stroke:#000000;stroke-miterlimit:10;}
	.st4{fill:#729BF7;stroke:#000000;stroke-miterlimit:10;}
</style>
<g>
	<path class="st0" d="M15.5,29.5c0,0-8,20-6,27c0,0,15,15,35,2l3-2c0,0,3,2,5-1c0,0,3-6-4-6c0,0,0-16-2-18
		C46.5,31.5,20.5,23.5,15.5,29.5z"/>
	<path class="st1" d="M18.7,21.3c0,0-7.8,3.6-8-0.4c0,0-3.6,7.2,4.5,7.7c0,0-7.1-1.6-6.3,11.4c0,0,6.4-9.4,11.7-4.7
		c0,0,1.4,5.9-3.7,5.2c0,0,7.3,4.6,13.7-4.9c0,0,3.5,7.8,10.5,7.4c0,0-6.4-6.6-1.5-7.9c0,0,11.2,3.3,6.7,10.6c0,0-2.8,3.2,0.5,8
		c0,0,2.7-5.2,4.8-3.3c0,0,0.4,7,5.1,0.7c0,0-8.2-3.5-4.4-5.7c0,0,3.9-1.2,3.1,1.8c0,0,8.7-4.6,0.4-9c0,0-6.4-5.6,1.5-8.1
		c0,0-5.7-10.7-11.4-6.3c0,0-4.4-5.7-10.4-6.4c0,0-15,0.9-11.2-3.3C24.2,14.1,18.2,14.3,18.7,21.3z"/>
	<path class="st2" d="M44.4,18.2c0,0,8.8,2.1,14,8.8l6.8-6.2l-7.9-1l-0.1-7.1L50.7,16l-5.1-7.7L44.4,18.2z"/>
	<ellipse class="st3" cx="18.1" cy="45.9" rx="1.6" ry="2.4"/>
	<ellipse class="st3" cx="33.6" cy="47.6" rx="1.6" ry="2.4"/>
	<path class="st4" d="M28,63.8c0,0,11.5,19.7,30.5,18.7c0,0,7-19,12-18c0,0-22.5-3.8-21.3-7.4l-1.7-0.6C47.5,56.5,37.5,64.1,28,63.8
		z"/>
</g>
</svg>
